<?xml version="1.0" encoding="UTF-8"?>
<svg width="640px" height="200px" viewBox="0 0 640 200" version="1.1" xmlns="http://www.w3.org/2000/svg" xmlns:xlink="http://www.w3.org/1999/xlink">
    <title>logo</title>
    <defs>
        <rect id="path-1" x="0" y="0" width="640" height="200"></rect>
    </defs>
    <g id="页面-1" stroke="none" stroke-width="1" fill="none" fill-rule="evenodd">
        <g id="logo">
            <mask id="mask-2" fill="white">
                <use xlink:href="#path-1"></use>
            </mask>
            <g id="矩形"></g>
            <path d="M154,10 C173.882251,10 190,26.117749 190,46 L190,154 C190,173.882251 173.882251,190 154,190 L46,190 C26.117749,190 10,173.882251 10,154 L10,46 C10,26.117749 26.117749,10 46,10 L154,10 Z M141.2656,54.0625 L57.45312,54.0625 L57.45312,84.875 C57.45312,86.0208667 57.6666633,87.0052333 58.09375,87.8281 C58.53125,88.6406333 59.1354167,89.0469 59.90625,89.0469 C60.4791633,89.1406333 60.9114533,88.9948 61.20312,88.6094 C61.3906267,88.4218667 61.72396,87.7031 62.20312,86.4531 L62.92188,84.5781 L65.375,78.1094 C66.0520667,76.4739333 67.0624667,74.4791333 68.4062,72.125 C69.75,69.7708667 70.9479333,68.0208667 72,66.875 C73.6354,65.2396 75.2656,63.9896 76.8906,63.125 C80.8281333,60.8229333 84,59.6719 86.4062,59.6719 L89.5625,59.8125 L89.5625,136.422 C89.5625,139.109333 88.9166667,141.677 87.625,144.125 C86.3333333,146.573 84.7239667,148.083333 82.7969,148.656 C80.1093667,149.812667 78,150.391 76.4688,150.391 L74.5938,150.688 C74.0208667,150.781333 73.5156333,150.994667 73.0781,151.328 C72.6510333,151.661333 72.4375,152.119667 72.4375,152.703 C72.3333,154.234333 73.1978667,155 75.0312,155 L124.8438,155 C125.427133,155.094 125.958367,154.948 126.4375,154.562 C126.916633,154.176667 127.1562,153.650667 127.1562,152.984 L127.1562,152.703 C127.1562,151.932333 126.916633,151.380333 126.4375,151.047 C125.958367,150.703 125.427133,150.531 124.8438,150.531 L122.9688,150.391 C121.625,150.391 119.968733,150.010667 118,149.25 C116.041667,148.479333 114.484367,147.515667 113.3281,146.359 C111.411433,144.349 110.4531,141.182333 110.4531,136.859 L110.2969,59.8125 L113.7656,59.6719 C115.0052,59.4843667 116.7552,59.9427 119.0156,61.0469 C121.276,62.1510333 123.4583,63.6145667 125.5625,65.4375 C127.6771,67.2604333 129.213567,69.1771 130.1719,71.1875 C131.4219,73.3958333 132.5521,75.6770667 133.5625,78.0312 C134.5729,80.3854 135.218733,82.2812667 135.5,83.7188 L136.2188,86.4531 C136.322933,87.3177 136.6146,87.9896 137.0938,88.4688 C137.572933,88.9479333 138.098967,89.1875 138.6719,89.1875 C139.4427,89.1875 140.114567,88.8073 140.6875,88.0469 C141.260433,87.2760333 141.453133,86.2187333 141.2656,84.875 L141.2656,54.0625 Z" id="形状结合" fill="#202020" fill-rule="nonzero" mask="url(#mask-2)"></path>
            <path d="M374,10 C393.882251,10 410,26.117749 410,46 L410,154 C410,173.882251 393.882251,190 374,190 L266,190 C246.117749,190 230,173.882251 230,154 L230,46 C230,26.117749 246.117749,10 266,10 L374,10 Z M340.8125,54.0625 L299.0625,54.0625 C297.718753,54.0625 296.802087,54.7812667 296.3125,56.2188 C296.218753,56.8854667 296.38542,57.4375333 296.8125,57.875 C297.25,58.3020667 297.708333,58.5156 298.1875,58.5156 L299.625,58.8125 C300.6875,58.9062333 301.9375,59.3385333 303.375,60.1094 C304.812467,60.8698 305.9635,61.875 306.8281,63.125 C308.369767,64.8542 309.1406,67.9271333 309.1406,72.3438 L308.9844,137 C308.890667,138.916667 308.557333,140.859333 307.9844,142.828 C307.411467,144.796667 306.645833,146.260333 305.6875,147.219 C304.8229,148.083667 303.786433,148.807667 302.5781,149.391 C301.3802,149.963667 300.34896,150.297 299.48438,150.391 L297.90625,150.688 C296.562497,150.875333 295.843747,151.495 295.75,152.547 C295.55208,153.411667 295.692707,154.036667 296.17188,154.422 C296.65104,154.807333 297.27604,155 298.04688,155 L341.25,155 C342.8854,155 343.7031,154.375 343.7031,153.125 L343.7031,152.703 C343.598967,151.838333 343.4271,151.312333 343.1875,151.125 C342.9479,150.927 342.4479,150.781333 341.6875,150.688 L339.8125,150.391 C338.5625,150.297 337.265633,149.963667 335.9219,149.391 C334.5781,148.807667 333.473933,147.99 332.6094,146.938 C331.7448,145.885333 331.166667,144.661333 330.875,143.266 C330.593733,141.87 330.401033,140.067667 330.2969,137.859 L330.2969,71.9062 C330.2969,68.7395333 331.161467,65.8124667 332.8906,63.125 C334.6198,60.4375333 336.781267,59.0000333 339.375,58.8125 L340.9531,58.5156 C341.536433,58.5156 342.0156,58.3020667 342.3906,57.875 C342.776067,57.4375333 343.020867,56.9323333 343.125,56.3594 C343.125,54.9218667 342.354167,54.1562333 340.8125,54.0625 Z" id="形状结合" fill="#202020" fill-rule="nonzero" mask="url(#mask-2)"></path>
            <path d="M594,10 C613.882251,10 630,26.117749 630,46 L630,154 C630,173.882251 613.882251,190 594,190 L486,190 C466.117749,190 450,173.882251 450,154 L450,46 C450,26.117749 466.117749,10 486,10 L594,10 Z M498.76562,54.0625 C497.994793,53.9583 497.369793,54.1718333 496.89062,54.7031 C496.41146,55.2343667 496.17188,55.8802 496.17188,56.6406 C496.17188,57.2239333 496.338547,57.7083333 496.67188,58.0938 C497.015627,58.4687333 497.47396,58.6562 498.04688,58.6562 L500.0625,58.8125 C500.73958,58.8125 501.770813,59.2916667 503.1562,60.25 C504.552067,61.2083333 505.583333,62.1666667 506.25,63.125 C506.7292,63.8958 507.1615,65.3645333 507.5469,67.5312 C507.9323,69.6874667 508.125,71.2916667 508.125,72.3438 L507.9844,138.016 C508.276067,141.464 507.437533,144.292 505.4688,146.5 C503.5,148.708 501.41144,150.005 499.20312,150.391 L497.90625,150.688 C496.562497,150.875333 495.843747,151.495 495.75,152.547 C495.55208,153.317667 495.64583,153.921667 496.03125,154.359 C496.41667,154.786333 496.942713,155 497.60938,155 L580.8438,155 L583.4375,124.906 C583.531233,124.229333 583.5781,123.458667 583.5781,122.594 C583.5781,121.833333 583.531233,121.354 583.4375,121.156 C583.156233,120.677333 582.583333,120.438 581.7188,120.438 C580.947933,120.344 580.390633,120.536667 580.0469,121.016 C579.713567,121.494667 579.3542,122.406 578.9688,123.75 L577.9688,126.344 C575.4688,132.968667 571.437533,138.583333 565.875,143.188 C561.552067,147.031333 556.0781,148.953 549.4531,148.953 L535.2031,148.953 C532.994767,148.953 531.218733,147.994667 529.875,146.078 C529.4896,145.400667 529.25,144.775667 529.1562,144.203 C529.062467,143.630333 529.0156,142.911667 529.0156,142.047 L529.0156,140.172 L529.1562,71.9062 C528.958333,70.0833333 529.265633,68.1406333 530.0781,66.0781 C530.901033,64.0156333 532.031267,62.2916667 533.4688,60.9062 C534.906267,59.5104 536.348967,58.8125 537.7969,58.8125 L539.8125,58.5156 C540.385433,58.5156 540.812533,58.3281 541.0938,57.9531 C541.3854,57.5677 541.5312,57.0833333 541.5312,56.5 C541.5312,55.8333333 541.3385,55.2604 540.9531,54.7812 C540.5781,54.3020667 540.052067,54.0625 539.375,54.0625 Z" id="形状结合" fill="#202020" fill-rule="nonzero" mask="url(#mask-2)"></path>
        </g>
    </g>
</svg>